<?xml version="1.0" encoding="UTF-8" standalone="no"?>
<!DOCTYPE svg PUBLIC "-//W3C//DTD SVG 1.1//EN" "http://www.w3.org/Graphics/SVG/1.1/DTD/svg11.dtd">
<svg width="100%" height="100%" viewBox="0 0 5757 1508" version="1.1" xmlns="http://www.w3.org/2000/svg" xmlns:xlink="http://www.w3.org/1999/xlink" xml:space="preserve" xmlns:serif="http://www.serif.com/" style="fill-rule:evenodd;clip-rule:evenodd;stroke-linejoin:round;stroke-miterlimit:2;">
    <g transform="matrix(1,0,0,1,-43931.2,-23625)">
        <g transform="matrix(4.16667,0,0,4.16667,43931.2,23625)">
            <g transform="matrix(1,0,0,1,0,344.763)">
                <path d="M0,-337.932L0.487,-344.763L227.184,-344.763L226.576,-343.418L233.512,-279.868L222.925,-276.245L214.407,-335.758L70.455,-335.758L70.455,-173.675L189.197,-173.675C190.796,-173.391 192.223,-173.779 193.536,-174.814C194.906,-175.849 195.591,-177.298 195.591,-179.161L197.646,-210.211L205.524,-211.039L205.524,-134.034C205.21,-134.034 202.727,-133.879 198.103,-133.62L196.162,-164.671L70.455,-164.671L70.455,-2.587L228.766,-2.587L238.744,-74.624L248.844,-72.347L240.934,6.417L106.474,6.417L0,6.831L0.487,0.518L28.109,-2.587C31.577,-2.846 33.706,-4.813 34.437,-8.487L34.437,-329.445C33.706,-333.016 31.577,-334.956 28.109,-335.241L0,-337.932Z" style="fill:rgb(17,15,16);fill-rule:nonzero;"/>
            </g>
        </g>
        <g transform="matrix(4.16667,0,0,4.16667,43931.2,23625)">
            <g transform="matrix(1,0,0,1,252.129,344.032)">
                <path d="M0,-336.423L0.487,-344.032L203.765,-344.032L203.247,-342.687L209.147,-279.137L200.142,-275.514L192.897,-335.028L70.455,-335.028L70.455,-172.944L189.197,-172.944C190.796,-172.66 192.223,-173.048 193.536,-174.083C194.906,-175.118 195.591,-176.567 195.591,-178.43L197.646,-209.48L205.524,-210.308L205.524,-133.303C205.21,-133.303 202.727,-133.148 198.103,-132.889L196.162,-163.94L70.455,-163.94L70.455,-2.421L106.96,-0.346C106.96,-0.029 106.778,2.479 106.474,7.148L0,7.609L0.487,0.576L28.109,-2.882C31.577,-3.171 33.706,-5.361 34.437,-9.454L34.437,-326.969C33.706,-330.947 31.577,-333.108 28.109,-333.425L0,-336.423Z" style="fill:rgb(17,15,16);fill-rule:nonzero;"/>
            </g>
        </g>
        <g transform="matrix(4.16667,0,0,4.16667,43931.2,23625)">
            <g transform="matrix(1,0,0,1,748.497,351.18)">
                <path d="M0,-342.176C2.987,-341.148 4.079,-339.453 3.332,-336.092L-1.609,-303.576C-2.7,-298.061 -3.619,-292.23 -4.366,-286.112C-5.142,-280.051 -6.061,-274.278 -7.124,-268.762C-7.526,-267.298 -8.818,-266.752 -11.03,-267.154C-13.271,-267.527 -14.19,-268.245 -13.788,-269.337C-12.639,-275.915 -12.064,-282.148 -12.064,-288.065C-12.064,-302.083 -15.224,-313.113 -21.486,-321.156C-27.776,-329.256 -48.027,-333.171 -48.027,-333.171L-102.443,-333.171C-114.68,-333.171 -123.685,-332.248 -129.457,-330.401C-135.171,-328.554 -139.5,-325.033 -142.502,-319.895C-145.446,-314.729 -147.812,-306.619 -149.659,-295.537L-170.208,-180.093L-88.356,-180.093C-88.356,-180.093 -64.228,-183.738 -58.023,-189.254C-51.761,-194.769 -47.51,-204.707 -45.27,-219.127C-45.27,-220.19 -44.178,-220.735 -41.938,-220.735C-41.191,-220.735 -40.329,-220.448 -39.41,-219.931C-38.491,-219.385 -38.232,-218.725 -38.606,-217.978C-40.444,-206.948 -41.909,-199.192 -42.972,-194.769L-46.304,-175.466L-49.636,-153.98L-54.117,-125.256C-54.433,-123.705 -55.696,-123.015 -57.908,-123.188C-60.149,-123.417 -61.068,-124.25 -60.666,-125.715C-59.23,-135.281 -58.483,-141.37 -58.483,-143.984C-58.483,-153.549 -61.097,-160.357 -66.296,-164.436C-71.437,-168.486 -92.148,-171.088 -92.148,-171.088L-171.752,-171.088L-194.049,-45.451C-195.181,-38.886 -195.747,-33.397 -195.747,-29.039C-195.747,-21.116 -193.314,-15.796 -188.39,-13.08C-183.495,-10.363 -174.128,-9.005 -160.32,-9.005L-84.447,-9.005C-73.476,-9.005 -63.022,-14.956 -53.086,-26.911C-43.15,-38.839 -35.361,-54.235 -29.695,-73.072C-29.358,-74.107 -28.297,-74.444 -26.486,-74.107C-24.623,-73.745 -23.873,-73.098 -24.209,-72.141C-29.876,-54.183 -34.844,-32.629 -39.113,-7.452C-39.812,-4.813 -40.743,-2.924 -41.908,-1.76C-43.098,-0.57 -44.806,0 -47.083,0L-269.027,0C-269.796,0 -270.166,-1.082 -270.166,-3.304C-270.166,-5.496 -269.796,-6.607 -269.027,-6.607C-256.668,-6.607 -247.556,-7.518 -241.689,-9.341C-235.852,-11.163 -231.495,-14.609 -228.59,-19.706C-225.629,-24.775 -223.066,-32.976 -220.845,-44.31L-175.965,-297.752C-174.826,-304.359 -174.257,-309.997 -174.257,-314.724C-174.257,-323.154 -176.848,-328.735 -182.002,-331.469C-187.1,-334.203 -196.582,-335.569 -210.479,-335.569C-211.561,-335.569 -212.074,-336.652 -212.074,-338.873C-212.074,-341.065 -211.561,-342.176 -210.479,-342.176L0,-342.176Z" style="fill:rgb(17,15,16);fill-rule:nonzero;"/>
            </g>
        </g>
        <g transform="matrix(4.16667,0,0,4.16667,43931.2,23625)">
            <g transform="matrix(1,0,0,1,934.631,3.943)">
                <path d="M0,357.905C-31.338,357.905 -57.966,351.988 -79.854,340.211C-101.684,328.434 -118.315,312.147 -129.719,291.379C-141.151,270.554 -146.839,246.512 -146.839,219.224C-146.839,207.131 -145.776,194.464 -143.622,181.193C-137.36,146.207 -123.515,114.983 -102.144,87.552C-80.773,60.149 -54.547,38.692 -23.439,23.209C7.641,7.755 40.846,0 76.177,0C91.257,0 105.303,1.896 118.344,5.63C131.443,9.307 141.841,14.448 149.596,21.026C151.808,23.267 152.928,25.622 152.928,28.15L152.354,33.78L147.988,91.688C147.586,93.153 146.379,93.871 144.311,93.871C142.3,93.871 141.324,93.153 141.324,91.688C140.232,65.578 132.247,45.7 117.31,32.056C102.431,18.441 81.577,11.605 54.691,11.605C11.547,11.605 -24.358,25.048 -53.083,51.934C-81.749,78.819 -100.506,115.299 -109.382,161.316C-112.312,178.263 -113.748,193.544 -113.748,207.16C-113.748,235.511 -108.521,260.357 -98.007,281.728C-87.523,303.042 -72.701,319.501 -53.542,331.134C-34.412,342.71 -12.15,348.483 13.213,348.483C30.132,348.483 43.374,346.846 52.968,343.543C62.533,340.182 70.26,333.748 76.177,324.24C82.065,314.675 86.518,300.456 89.505,281.613C92.406,265.844 93.871,254.268 93.871,246.914C93.871,239.877 92.492,234.62 89.735,231.173C86.977,227.669 82.266,225.371 75.602,224.279C68.996,223.13 59.287,222.556 46.419,222.556C45.643,222.556 44.982,222.096 44.465,221.177C43.919,220.258 43.661,219.281 43.661,218.19C43.661,217.041 43.919,216.007 44.465,215.088C44.982,214.168 45.643,213.709 46.419,213.709C69.542,215.547 88.701,216.466 103.867,216.466C118.172,216.466 133.281,215.949 149.137,214.858C150.573,214.858 151.32,216.179 151.32,218.764C151.32,221.292 150.573,222.556 149.137,222.556C141.008,222.183 135.004,223.36 131.098,226.118C127.249,228.875 124.032,234.505 121.446,243.008C118.919,251.51 115.816,266.274 112.14,287.243C109.526,303.415 108.118,314.819 107.889,321.483C107.716,328.089 107.458,332.829 107.084,335.73C106.768,337.97 106.223,339.378 105.476,339.981C104.7,340.527 103.063,341.331 100.535,342.394C62.619,352.735 29.098,357.905 0,357.905" style="fill:rgb(17,15,16);fill-rule:nonzero;"/>
            </g>
        </g>
        <g transform="matrix(4.16667,0,0,4.16667,43931.2,23625)">
            <g transform="matrix(1,0,0,1,1377.99,351.18)">
                <path d="M0,-342.176C2.987,-341.148 4.079,-339.453 3.332,-336.092L-1.609,-303.576C-2.7,-298.061 -3.619,-292.23 -4.366,-286.112C-5.142,-280.051 -6.061,-274.278 -7.124,-268.762C-7.526,-267.298 -8.818,-266.752 -11.03,-267.154C-13.271,-267.527 -14.19,-268.245 -13.788,-269.337C-12.639,-275.915 -12.064,-282.148 -12.064,-288.065C-12.064,-302.083 -15.224,-313.113 -21.486,-321.156C-27.776,-329.256 -48.027,-333.171 -48.027,-333.171L-102.443,-333.171C-114.68,-333.171 -123.685,-332.248 -129.457,-330.401C-135.171,-328.554 -139.5,-325.033 -142.502,-319.895C-145.446,-314.729 -147.812,-306.619 -149.659,-295.537L-170.208,-180.093L-88.356,-180.093C-88.356,-180.093 -64.228,-183.738 -58.023,-189.254C-51.761,-194.769 -47.51,-204.707 -45.27,-219.127C-45.27,-220.19 -44.178,-220.735 -41.938,-220.735C-41.191,-220.735 -40.329,-220.448 -39.41,-219.931C-38.491,-219.385 -38.232,-218.725 -38.605,-217.978C-40.444,-206.948 -41.909,-199.192 -42.972,-194.769L-46.304,-175.466L-49.636,-153.98L-54.117,-125.256C-54.433,-123.705 -55.697,-123.015 -57.908,-123.188C-60.149,-123.417 -61.068,-124.25 -60.666,-125.715C-59.23,-135.281 -58.483,-141.37 -58.483,-143.984C-58.483,-153.549 -61.097,-160.357 -66.296,-164.436C-71.437,-168.486 -92.148,-171.088 -92.148,-171.088L-171.752,-171.088L-194.049,-45.451C-195.181,-38.886 -195.747,-33.397 -195.747,-29.039C-195.747,-21.116 -193.314,-15.796 -188.39,-13.08C-183.495,-10.363 -174.128,-9.005 -160.32,-9.005L-84.447,-9.005C-73.476,-9.005 -63.022,-14.956 -53.086,-26.911C-43.15,-38.839 -35.361,-54.235 -29.695,-73.072C-29.358,-74.107 -28.297,-74.444 -26.486,-74.107C-24.623,-73.745 -23.873,-73.098 -24.209,-72.141C-29.876,-54.183 -34.844,-32.629 -39.113,-7.452C-39.812,-4.813 -40.743,-2.924 -41.908,-1.76C-43.098,-0.57 -44.806,0 -47.083,0L-269.027,0C-269.796,0 -270.166,-1.082 -270.166,-3.304C-270.166,-5.496 -269.796,-6.607 -269.027,-6.607C-256.668,-6.607 -247.556,-7.518 -241.689,-9.341C-235.852,-11.163 -231.495,-14.609 -228.59,-19.706C-225.629,-24.775 -223.066,-32.976 -220.844,-44.31L-175.965,-297.752C-174.826,-304.359 -174.257,-309.997 -174.257,-314.724C-174.257,-323.154 -176.848,-328.735 -182.002,-331.469C-187.1,-334.203 -196.582,-335.569 -210.479,-335.569C-211.561,-335.569 -212.074,-336.652 -212.074,-338.873C-212.074,-341.065 -211.561,-342.176 -210.479,-342.176L0,-342.176Z" style="fill:rgb(17,15,16);fill-rule:nonzero;"/>
            </g>
        </g>
    </g>
</svg>
